<?xml version="1.0" encoding="UTF-8" standalone="no"?>
<svg
   width="826.62677"
   height="1328.2845"
   viewBox="0 0 826.62677 1328.2845"
   version="1.1"
   id="svg5"
   sodipodi:docname="Vlinder.svg"
   xml:space="preserve"
   inkscape:version="1.4.2 (f4327f4, 2025-05-13)"
   inkscape:export-filename="..\..\assets\images\Vlinder.png"
   inkscape:export-xdpi="300"
   inkscape:export-ydpi="300"
   xmlns:inkscape="http://www.inkscape.org/namespaces/inkscape"
   xmlns:sodipodi="http://sodipodi.sourceforge.net/DTD/sodipodi-0.dtd"
   xmlns="http://www.w3.org/2000/svg"
   xmlns:svg="http://www.w3.org/2000/svg"
   xmlns:rdf="http://www.w3.org/1999/02/22-rdf-syntax-ns#"
   xmlns:cc="http://creativecommons.org/ns#"
   xmlns:dc="http://purl.org/dc/elements/1.1/"><sodipodi:namedview
     id="namedview5"
     pagecolor="#ffffff"
     bordercolor="#000000"
     borderopacity="0.25"
     inkscape:showpageshadow="2"
     inkscape:pageopacity="0.0"
     inkscape:pagecheckerboard="0"
     inkscape:deskcolor="#d1d1d1"
     inkscape:zoom="0.72937499"
     inkscape:cx="-248.15767"
     inkscape:cy="769.8372"
     inkscape:window-width="5120"
     inkscape:window-height="1369"
     inkscape:window-x="-8"
     inkscape:window-y="-8"
     inkscape:window-maximized="1"
     inkscape:current-layer="svg5" /><title
     id="title1">Butterfly – colorable SVG</title><defs
     id="defs1"><style
       id="style1">
      :root {
        --stroke: #111111;
        --wing: #ffffff;
        --body: #ffffff;
        --hearts: #ffffff;
      }
      .outline { fill: none; stroke: var(--stroke); stroke-width: 28; stroke-linecap: round; stroke-linejoin: round; }
      .fill-wing { fill: var(--wing); stroke: var(--stroke); stroke-width: 28; stroke-linecap: round; stroke-linejoin: round; }
      .fill-body { fill: var(--body); stroke: var(--stroke); stroke-width: 28; stroke-linecap: round; stroke-linejoin: round; }
      .fill-hearts { fill: var(--hearts); stroke: var(--stroke); stroke-width: 20; stroke-linecap: round; stroke-linejoin: round; }
    </style></defs><!-- GROUP: Wings --><!-- GROUP: Body + head --><!-- GROUP: Stripes + hearts --><!-- GROUP: Flight string --><g
     id="g11"
     transform="translate(-154.84005,-127.97487)"><path
       id="path18"
       style="display:inline;fill:#000000"
       d="m 530.22852,128.09961 c -46.95671,-1.7674 -102.39951,15.23503 -147.75391,51.70508 -115.20819,92.64037 -166.94246,234.33943 -137.53711,376.71289 1.12006,5.42305 2.03806,10.37305 2.03906,11 0.002,0.78881 -2.59997,1.03916 -8.44531,0.8164 -11.12725,-0.42404 -21.07801,2.18514 -32.66211,8.56055 -2.80546,1.544 -3.81924,-28.78174 -1.32812,-39.73437 1.45328,-6.38957 1.81085,-6.97313 4.88086,-7.98633 8.6818,-2.86525 10.27371,-15.5243 2.46093,-19.56445 -8.22768,-4.25469 -16.60962,0.79325 -15.47851,9.32031 1.05873,7.98138 0.96392,9.50624 -1.00782,16.22656 -2.59443,8.8427 -2.63207,31.56478 -0.0664,40.86133 2.31225,8.37828 1.98343,8.40439 -5.3418,0.42969 -16.29365,-17.73826 -25.70869,-42.66288 -18.86719,-49.94532 5.47845,-5.83154 1.44698,-16.3457 -6.26757,-16.3457 -8.77297,0 -13.09018,8.99134 -7.5254,15.67383 1.81,2.17353 2.50801,4.55925 3.02149,10.32617 1.58202,17.76782 8.82274,32.684 22.58203,46.52344 l 7.33984,7.38281 -4.0996,6.29688 c -29.41152,45.19602 7.78878,103.83574 56.13085,88.48046 4.11527,-1.30716 4.74762,-1.32391 4.2793,-0.10351 -13.7108,35.72977 0.0519,115.7463 31.28125,181.86719 36.93321,78.19753 107.83594,142.21858 158.56836,143.17768 l 9.95898,0.1876 1.6836,4.8437 c 16.41971,47.2367 62.779,114.0146 106.7168,153.7168 69.2481,62.5726 141.50328,93.6269 217.84375,93.6269 h 16.17382 l 1.07422,5.0137 c 5.46598,25.487 32.74348,43.7661 81.30274,54.4844 65.579,14.475 106.39124,63.5625 99.97851,120.2519 -1.18598,10.4842 -1.16361,10.7934 0.90821,12.5 6.74731,5.5584 9.38553,-1.1108 9.39453,-23.75 0.0235,-58.9877 -38.96009,-101.3539 -109.49219,-118.996 -46.29092,-11.5786 -69.97348,-26.9787 -72.69531,-47.2715 -0.50093,-3.7347 -0.50267,-3.7346 7.3457,-5.3653 43.10697,-8.9569 65.84648,-43.2775 39.67188,-59.8769 -24.31896,-15.4226 -55.11234,8.6029 -58.00782,45.2597 l -0.61133,7.75 -7.10156,0.2129 c -118.48771,3.556 -243.68951,-81.9301 -310.07226,-211.7129 -13.55824,-26.5073 -14.69805,-30.3387 -13.92188,-46.83003 1.59704,-33.93237 -5.67508,-65.42018 -28.21289,-122.15429 -0.43351,-1.09126 7.73744,6.74732 18.1582,17.41796 143.352,146.78966 279.49544,202.50616 375.94727,153.85746 177.86549,-89.71223 162.02087,-320.44685 -26.9082,-391.84378 l -9.90821,-3.74414 4.40821,-2.24219 C 888.14739,595.2278 935.46432,461.35823 898.43359,338.52344 863.33797,222.10761 768.90277,166.99651 646.19141,191.31641 c -17.53831,3.47588 -17.41165,3.49215 -19.125,-2.30469 C 615.65559,150.40509 577.18522,129.867 530.22852,128.09961 Z M 830.37891,1204.1953 c 5.10753,-0.2055 10.03425,1.5872 14.0957,5.9043 8.96993,9.5345 -3.31844,26.4948 -25.26953,34.8789 -4.25247,1.6243 -10.76797,3.6344 -14.48047,4.4668 l -6.75,1.5137 0.0234,-5.1504 c 0.10628,-22.3945 17.05826,-40.9969 32.38086,-41.6133 z"
       inkscape:label="Underlayer" /><path
       style="display:inline;fill:#ffdecc;fill-opacity:1"
       d="M 290.83258,615.11833 C 343.62183,488.50487 398.67787,384.42295 440.5103,332.15681 497.8657,260.496 547.51624,222.10139 609.97429,201.11081 620.4006,197.60679 620.41088,197.56974 614.3477,185.33867 586.43465,129.03044 485.57762,121.24802 413.32018,169.8268 281.60332,258.38023 215.24862,431.23177 258.85257,572.20921 c 1.09682,3.54618 3.86804,12.5226 6.15825,19.9476 3.47989,11.28197 9.99968,29.83858 14.8931,42.38869 1.46591,3.75962 0.67561,5.1645 10.92866,-19.42717 z"
       id="path11"
       inkscape:label="Back Wing" /><path
       style="display:inline;fill:#ffdecc;fill-opacity:1"
       d="m 310.27846,787.1322 c 3.21285,-2.52723 7.53163,-11.49825 8.3262,-17.29528 1.5701,-11.45512 -7.61822,-12.27799 -12.55211,-1.12412 -2.44565,5.5288 -4.0877,6.21933 -8.42091,3.54126 -9.55084,-5.90275 -17.24613,1.138 -9.40735,8.60718 8.76365,8.35043 16.58371,10.57402 22.05417,6.27096 z"
       id="path10"
       inkscape:label="Body Heart 1" /><path
       style="display:inline;fill:#000000;fill-opacity:1"
       d="m 286.78171,791.62723 c 0.16908,-0.13856 -1.76655,-2.21358 -4.30139,-4.61117 -13.36608,-12.64231 -2.21667,-32.1239 13.73138,-23.99313 3.66028,1.86612 3.66028,1.86612 4.68537,-1.07443 3.60896,-10.35267 19.7098,-12.20425 24.5603,-2.82442 1.73648,3.358 2.00886,12.60865 0.48894,16.60632 -1.56203,4.10847 -0.82555,4.01266 9.00722,-1.17173 12.10402,-6.38192 11.90146,-5.9393 6.17969,-13.50356 -33.92576,-44.85033 -65.62457,-104.9245 -82.73636,-156.79826 -8.39462,-25.44797 -7.92471,-24.66539 -15.75457,-26.23785 -20.63192,-4.14348 -46.83651,13.44745 -55.12544,37.00525 -14.01494,39.83156 24.73191,75.2428 61.78533,56.46641 9.16788,-4.64572 12.13969,-0.76531 8.27281,10.80215 -8.70386,26.03695 -8.66734,61.22727 0.10229,98.56308 2.6023,11.079 2.66356,11.2032 5.71376,11.58393 3.00709,0.37535 22.77923,-0.31154 23.39067,-0.81259 z"
       id="path8"
       inkscape:label="Top Body" /><path
       style="display:inline;fill:#000000;fill-opacity:1"
       d="m 212.6436,644.11133 c -5.09876,-4.01068 -5.31699,-13.17422 -0.42083,-17.67081 9.34995,-8.58692 22.76102,2.46464 17.20333,14.17661 -2.69074,5.67031 -11.64573,7.53478 -16.7825,3.4942 z"
       id="path9"
       inkscape:label="Eye" /><path
       style="display:inline;fill:#ffdecc;fill-opacity:1"
       d="m 332.41449,835.90681 c 6.42718,-6.44661 9.64093,-20.55663 5.52952,-24.2774 -3.90551,-3.53444 -8.60045,0.29215 -11.87166,9.67596 -1.19677,3.43307 -3.67771,3.68796 -8.32389,0.85518 -9.72957,-5.93212 -15.70145,1.5761 -7.50225,9.43231 8.70684,8.34262 16.61707,9.88195 22.16828,4.31395 z"
       id="path7"
       inkscape:label="Body Heart 2" /><path
       style="display:inline;fill:#ffd0b6;fill-opacity:1"
       d="m 302.72429,844.00678 c 7.29951,-1.42122 7.35423,-1.53482 2.39094,-4.9631 -15.49712,-10.7043 -3.78861,-33.99571 12.78194,-25.42675 3.05558,1.5801 4.07712,1.19172 4.07712,-1.55006 0,-2.75758 4.71417,-7.66062 8.59791,-8.94237 11.2149,-3.70125 19.87807,5.59632 17.45048,18.72836 -1.32372,7.16068 -2.00909,7.12149 8.62963,0.49347 22.31143,-13.90022 21.70575,-11.58019 7.75099,-29.68952 -6.35732,-8.25 -11.91219,-15.61117 -12.34416,-16.35815 -0.60183,-1.04072 -2.28117,-0.25542 -7.18512,3.35994 -18.53836,13.66708 -46.90936,22.49821 -72.27806,22.49821 -4.74192,0 -8.62167,0.41993 -8.62167,0.93318 0,1.06515 10.89357,32.41183 13.4693,38.75844 2.2248,5.48191 6.38597,5.83717 25.2807,2.15835 z"
       id="path6"
       inkscape:label="Body Stripe 1" /><path
       style="display:inline;fill:#ffdecc;fill-opacity:1"
       d="m 355.38258,881.75958 c 6.157,-2.57256 12.5139,-20.0202 9.15945,-25.13973 -3.17364,-4.84359 -8.14685,-2.40365 -11.85808,5.81778 -2.12797,4.71406 -3.95344,5.45022 -8.33448,3.36105 -10.03971,-4.7876 -16.24111,2.73968 -8.23128,9.99116 3.3564,3.03861 11.29991,6.8592 15.13822,7.28102 0.43017,0.0473 2.28694,-0.5428 4.12617,-1.31128 z"
       id="path5"
       inkscape:label="Body Heart 3" /><path
       style="display:inline;fill:#ffd0b6;fill-opacity:1"
       d="m 326.97429,890.52255 c 14.33285,-3.20176 14.08999,-3.01826 8.00682,-6.04963 -15.89863,-7.92262 -14.29903,-28.31611 2.22102,-28.31611 2.37993,0 5.33069,0.70291 6.55724,1.56202 2.05413,1.43877 2.27328,1.41904 2.77736,-0.25 2.11791,-7.01243 7.38098,-11.31416 13.83545,-11.30828 10.90384,0.01 16.18192,10.10636 12.19998,23.33733 -1.7568,5.83741 -2.16678,5.90143 11.2559,-1.75763 20.81397,-11.87656 26.56156,-17.45796 22.90618,-22.24388 -2.13543,-2.79586 -21.92685,-26.56344 -24.30135,-29.18354 -0.9988,-1.10212 -2.04535,-0.51663 -5.81531,3.25333 -17.22469,17.22469 -54.01342,32.9449 -84.64329,36.16896 -3.575,0.3763 -6.78777,0.84595 -7.13949,1.04366 -0.5861,0.32946 14.2885,29.74925 17.82405,35.25335 1.84122,2.8664 5.83653,2.61836 24.31544,-1.50958 z"
       id="path4"
       inkscape:label="Body Stripe 2" /><path
       style="display:inline;fill:#000000;fill-opacity:1"
       d="m 443.10827,999.99853 3.86602,-1.15829 v -12.96338 c 0,-26.87653 -5.44188,-51.65602 -20.47226,-93.22005 -3.99893,-11.0584 -13.2611,-34.26188 -14.10629,-35.33893 -0.14629,-0.18641 -1.93175,1.50489 -3.96769,3.75844 -16.02637,17.73927 -55.32078,35.89243 -89.24874,41.23097 -9.83839,1.54807 -9.71568,0.23295 -1.19386,12.79528 32.86018,48.44038 98.39294,92.90443 125.12282,84.89596 z"
       id="path3"
       inkscape:label="Bottom Body" /><path
       style="display:inline;fill:#f9b18a;fill-opacity:1"
       d="M 773.97429,1049.6103 C 868.26501,1032.9948 949.2116,925.35634 937.88026,831.65681 928.97756,758.03983 862.48757,682.73975 784.25878,657.6801 c -22.0086,-7.05019 -22.71855,-9.01064 -6.28449,-17.354 C 956.083,549.90258 936.56885,245.09906 749.85879,201.17263 635.63778,174.30037 511.2894,239.26487 425.44955,370.65681 384.97839,432.60454 334.83209,532.89192 294.96075,631.62083 l -7.65856,18.96402 3.34766,7.24555 c 33.82644,73.21291 122.90453,189.92852 194.82444,255.27103 111.81123,101.58557 213.53637,149.71867 288.5,136.50887 z"
       id="path2"
       inkscape:label="Wing (heart)" /></g><metadata
     id="metadata11"><rdf:RDF><cc:Work
         rdf:about=""><dc:title>Butterfly – colorable SVG</dc:title></cc:Work></rdf:RDF></metadata></svg>
